<?xml version="1.0" encoding="iso-8859-1"?>
<!-- Generator: Adobe Illustrator 21.1.0, SVG Export Plug-In . SVG Version: 6.00 Build 0)  -->
<svg version="1.1" id="Layer_1" xmlns="http://www.w3.org/2000/svg" xmlns:xlink="http://www.w3.org/1999/xlink" x="0px" y="0px"
	 viewBox="0 0 100.355 100.352" style="enable-background:new 0 0 100.355 100.352;" xml:space="preserve">
<g>
	<path d="M31.134,35.95c-2.729,0-4.95,2.221-4.95,4.95s2.22,4.95,4.95,4.95s4.95-2.22,4.95-4.95S33.863,35.95,31.134,35.95z
		 M31.134,42.85c-1.075,0-1.95-0.875-1.95-1.95s0.875-1.95,1.95-1.95s1.95,0.875,1.95,1.95S32.209,42.85,31.134,42.85z"/>
	<path d="M54.117,28.151c-8.81-0.451-12.462,3.022-12.613,3.171c-0.585,0.575-0.592,1.507-0.024,2.1
		c0.566,0.593,1.513,0.612,2.114,0.053c0.028-0.027,2.996-2.712,10.369-2.328c6.687,0.345,10.206,3.483,10.235,3.51
		c0.289,0.269,0.655,0.402,1.021,0.402c0.401,0,0.803-0.161,1.099-0.479c0.563-0.606,0.529-1.556-0.077-2.12
		C66.07,32.301,61.958,28.555,54.117,28.151z"/>
	<path d="M96.827,29.136c-2.085-0.366-7.072-0.942-8.396,1.601c-1.055,2.027,0.8,4.238,2.287,5.725
		c1.28,1.281,1.603,1.971,1.683,2.228c-0.62,0.333-2.631,0.375-4.554,0.111c-6.126-10.974-20.24-18.675-36.638-18.675
		c-4.004,0-7.979,0.471-11.832,1.402c-2.412-4.159-7.83-6.875-13.955-6.875c-0.829,0-1.5,0.671-1.5,1.5v12.366
		c-3.514,2.554-6.342,5.482-8.424,8.72H9.686c-3.576,0-6.486,3.151-6.486,7.024v5.298c0,9.521,13.255,18.785,18.365,22.242
		l2.833,13.958c0.142,0.698,0.757,1.201,1.47,1.201h7.386c0.695,0,1.299-0.478,1.459-1.154l1.448-6.108
		c5.098,1.835,9.345,2.204,15.048,2.204c5.261,0,9.009-0.308,13.768-1.885l1.516,5.822c0.172,0.661,0.769,1.122,1.451,1.122h7.386
		c0.703,0,1.312-0.488,1.465-1.175l2.884-13.007c7.794-5.862,11.428-12.793,11.428-21.768c0-3.147-0.615-6.184-1.749-9.046
		c0.281,0.015,0.566,0.026,0.856,0.026c2.012,0,4.122-0.404,4.915-1.928c1.054-2.026-0.801-4.238-2.287-5.725
		c-1.281-1.282-1.603-1.971-1.683-2.228c0.682-0.367,3.067-0.386,5.151-0.022c0.819,0.14,1.593-0.403,1.736-1.219
		C98.188,30.056,97.643,29.279,96.827,29.136z M77.449,70.698c-0.294,0.216-0.5,0.53-0.579,0.886l-2.745,12.378h-5.022l-1.634-6.278
		c-0.106-0.41-0.382-0.757-0.758-0.952c-0.378-0.196-0.818-0.224-1.216-0.076c-4.577,1.701-8.048,2.247-14.286,2.247
		c-5.919,0-10.15-0.416-15.547-2.608c-0.405-0.166-0.862-0.145-1.252,0.057c-0.389,0.2-0.671,0.562-0.772,0.987l-1.57,6.623h-4.974
		l-2.711-13.357c-0.079-0.385-0.305-0.725-0.631-0.944C12.105,61.804,6.2,55.041,6.2,49.56v-5.298c0-2.219,1.564-4.024,3.486-4.024
		h6.233l0.143-0.001c0.043-0.001,0.084-0.004,0.127,0c0.575,0.062,1.13-0.226,1.427-0.722c2.017-3.363,4.932-6.389,8.665-8.994
		c0.402-0.28,0.642-0.74,0.642-1.23V17.718c4.78,0.421,8.886,2.828,10.271,6.14c0.289,0.692,1.048,1.062,1.772,0.87
		c3.97-1.063,8.089-1.602,12.245-1.602c20.345,0,36.896,12.51,36.896,27.887C88.105,59.234,84.819,65.305,77.449,70.698z"/>
</g>
</svg>
