<?xml version="1.0" encoding="utf-8"?>
<!-- Generator: Adobe Illustrator 23.0.3, SVG Export Plug-In . SVG Version: 6.00 Build 0)  -->
<svg version="1.1" id="Capa_1" xmlns="http://www.w3.org/2000/svg" xmlns:xlink="http://www.w3.org/1999/xlink" x="0px" y="0px"
	 viewBox="0 0 116.3 116.3" style="enable-background:new 0 0 116.3 116.3;" xml:space="preserve">
<style type="text/css">
	.st0{fill:#242424;}
	.st1{fill:#211F20;}
	.st2{fill:#232323;}
	.st3{fill:#252525;}
	.st4{fill:#222222;}
	.st5{fill:#1F1F1F;}
	.st6{fill:#211E1F;}
	.st7{fill:#201E1F;}
	.st8{fill:#212020;}
	.st9{fill:#221F20;}
	.st10{fill:#222021;}
	.st11{fill:#201F20;}
	.st12{fill:#0383B2;}
	.st13{fill:#66B623;}
	.st14{fill:#1AAC6E;}
	.st15{fill:#FF3530;}
	.st16{fill:#111224;}
	.st17{fill:#FEFEFE;}
	.st18{fill:#F8F8F8;}
	.st19{fill:#FDFDFD;}
	.st20{fill:#262626;}
	.st21{fill:#FBFBFB;}
	.st22{fill:#FCFAFB;}
	.st23{fill:#201D1E;}
	.st24{fill:#FDFCFC;}
	.st25{fill:#FBFAFB;}
	.st26{fill:#2A2A2A;}
	.st27{fill:#FEFDFD;}
	.st28{fill:#FDFCFD;}
	.st29{fill:#FCFDFD;}
	.st30{fill:#FDFBFC;stroke:#2A2A2A;stroke-width:6;stroke-miterlimit:10;}
	.st31{fill:#FDFBFC;stroke:#2A2A2A;stroke-width:6;stroke-linecap:round;stroke-miterlimit:10;}
	.st32{fill:#FDFBFC;}
	.st33{fill:#F3F1F2;}
	.st34{fill:#F7F5F6;}
	.st35{fill:#F4F2F3;}
	.st36{fill:#244959;}
	.st37{fill:#FF6D3A;}
	.st38{fill:#12E2E2;}
	.st39{fill:#F1C667;}
	.st40{fill:#F0C76D;}
	.st41{fill:#FFDF8E;}
	.st42{fill:#2C4156;}
	.st43{fill:#12E2E2;stroke:#244959;stroke-width:6;stroke-miterlimit:10;}
	.st44{fill:#18AE89;}
</style>
<g>
	<g>
		<path class="st16" d="M94.5,27.8c-12-1.5-23.3-5.2-33.8-11.4c-1.9-1.1-3.4-0.8-5.2,0.1C45.4,21.5,35,25.4,23.8,27.1
			c-3.1,0.5-4.2,2.1-4,5.1c0.4,5.3,0.5,10.6,0.9,15.8c1.7,24.3,14.3,41.2,35.7,51.8c1.4,0.7,2.7,1.2,4.4,0.3
			c10.3-5.7,20-12,26.7-22.1c7.8-11.8,9.6-25.1,10.4-38.7c0-2.6,0-5.3,0-7.9C97.8,29.3,96.9,28.1,94.5,27.8z M55.6,93.1
			C42,85.8,32.5,75.9,28.4,60.8c8.7,0,16.9,0,25.1,0c2.1,0,2.2,1.1,2.2,2.7C55.6,73.1,55.6,82.7,55.6,93.1z M52.9,55.7
			c-7.8-0.1-15.6-0.1-23.3,0c-2.1,0-2.8-0.9-3-2.6c-0.9-6.2-1.3-12.4-1.4-18.6c0-1.9,0.9-2.4,2.5-2.7c8.6-1.6,16.8-4.5,24.8-8
			c2.5-1.1,3.3-0.7,3.2,2.1c-0.2,4.5,0,9,0,13.5c0,4.5-0.1,9,0,13.5C55.7,55,55,55.7,52.9,55.7z M88.6,63.8
			c-4.5,14-14.5,22.9-27.6,30.1c0-10.7,0.1-20.5,0-30.2c0-2.2,0.6-3,2.9-2.9c7.6,0.1,15.2,0.1,22.8,0C89.3,60.7,89.2,61.7,88.6,63.8
			z M92.6,35.7c-0.2,5.7-0.6,11.5-1.5,17.2c-0.3,2.1-1.1,2.9-3.2,2.8c-8.1-0.1-16.2-0.1-24.2,0c-1.9,0-2.8-0.4-2.8-2.6
			c0.1-9.9,0-19.8,0-30.3c9.8,4.8,19.5,8.3,29.9,9.8C92.8,32.9,92.7,34.3,92.6,35.7z"/>
		<path class="st16" d="M107.9,22.5c0-2.9-1.2-4-4.2-4.1c-15.2-0.7-29.4-4.8-42.1-13.5c-2.2-1.5-4-0.9-6,0.2
			c-13,7-26.8,11.8-41.5,13.2c-3.3,0.3-4.3,1.8-4.3,4.7c0,5.9-0.3,11.8,0,17.8c0.7,14.9,3.1,29.4,11.4,42.3
			c8.7,13.5,21.7,21.6,35.5,28.7c1.4,0.7,2.7,0.8,4,0.2c13.3-6.7,25.9-14.4,34.6-27c10.4-14.9,12.5-31.9,12.6-49.4
			C107.9,31.2,107.8,26.8,107.9,22.5z M102.9,38.7c-0.5,12.1-1.9,24.8-7.7,36.5C87.7,90,74.6,98.6,60.5,106
			c-1.5,0.8-2.6,0.3-3.9-0.3c-26-12.3-40.5-32.3-41.4-61.4C15,38.3,15.1,32.4,15,26.5c0-2.2,0.5-3.2,3-3.5
			c13.3-1.6,25.8-5.9,37.6-12c2.2-1.1,3.8-1.3,5.9,0.1c11.6,7.3,24.2,11.3,37.8,12.1c3,0.2,3.7,1.3,3.6,4
			C102.7,30.7,102.9,34.3,102.9,38.7z"/>
	</g>
</g>
</svg>
