<?xml version="1.0" encoding="UTF-8" standalone="no"?> <svg id="Layer_1" enable-background="new 0 0 511.507 511.507" height="512" viewBox="0 0 511.507 511.507" width="512" xmlns="http://www.w3.org/2000/svg"><g><g><path d="m511.507 362.779v-56.384l-40.637-263.837h-321.553v15h308.687l38.504 249.984v40.236h-481.5v-40.236l38.503-249.984h80.806v-15h-93.673l-40.549 263.269c-.132.849-.088-3.768-.088 56.952h199.895v27.96h-27.471l-28.474 28.474v49.736h164.79v-15h-149.79v-28.523l19.687-19.687h154.726l19.687 19.687v28.523h-29.31v15h44.31v-49.736l-28.474-28.474h-27.471v-27.96zm-214.395 27.958h-82.211v-27.958h82.211z"/><path d="m30.095 308.128c-.126.811-.088-2.08-.088 24.651h451.5v-24.083l-36.373-236.137h-378.754zm425.194-71.113h-65.947l-8.111-68.037h63.577zm-81.053 0h-70.531l-2.981-68.037h65.402zm-151.569 15h66.679l2.882 65.764h-72.443zm-17.896 65.764h-76.62l7.84-65.764h71.662zm18.554-80.764 2.981-68.037h59.402l2.981 68.037zm81.037 15h71.662l7.84 65.764h-76.62zm-4.296-98.037-2.91-66.419h59.264l7.918 66.419zm-15.015 0h-58.088l2.91-66.419h52.267zm-73.103 0h-64.271l7.918-66.419h59.264zm-.657 15-2.981 68.037h-70.531l8.111-68.037zm-88.619 68.037h-66.447l10.48-68.037h64.077zm-77.665 72.829 8.908-57.829h66.969l-7.84 65.764h-68.037zm421.5 7.935h-67.537l-7.84-65.764h66.469l8.908 57.829zm-24.009-163.801h-63.055l-7.918-66.419h60.741zm-302.009-66.419-7.918 66.419h-63.555l10.231-66.419z"/></g><g><path d="m308.266 440.343h-15v-15h15zm-45 0h-15v-15h15zm-45 0h-15v-15h15z"/></g><g><path d="m248.351 195.837h15v15h-15z"/></g><g><path d="m151.589 278.193h15v15h-15z"/></g><g><path d="m401.589 112.119h15v15h-15z"/></g><g><path d="m173.017 115.782h15v15h-15z"/></g><g><path d="m427.684 278.193h15v15h-15z"/></g></g></svg>