<?xml version="1.0" encoding="UTF-8" standalone="no"?> <svg height="512pt" viewBox="0 -14 512 511" width="512pt" xmlns="http://www.w3.org/2000/svg"><path d="m361 137.96875c0-57.15625-55.839844-108.121094-105-137.46875-49.15625 29.34375-105 80.335938-105 137.46875 0 62.757812 67.234375 112.996094 90 128.207031v36.792969h30v-36.792969c22.765625-15.210937 90-65.449219 90-128.207031zm-180 0c0-46.425781 54.503906-88.078125 75.011719-102.105469 8.046875 5.492188 21.316406 15.25 34.570312 28.046875 18.4375 17.792969 40.417969 45.085938 40.417969 74.058594 0 37.480469-35.519531 71.84375-60 91.078125v-54.863281l40.605469-40.609375-21.210938-21.210938-19.394531 19.394531v-53.789062h-30v53.789062l-19.394531-19.394531-21.210938 21.210938 40.605469 40.609375v54.875c-27.644531-21.777344-60-55.871094-60-91.089844zm0 0"/><path d="m497 62.96875c-41.355469 0-75 33.644531-75 75v97.617188l-2.363281 3.304687c-12.226563-8.101563-26.875-12.050781-41.757813-10.992187-19.398437 1.378906-37.210937 11.089843-48.875 26.644531l-57.003906 76.003906v152.421875h150v-40.84375l90-150v-229.15625zm-15 220.84375-90 150v19.15625h-90c0-14.367188 0-95.382812 0-112.421875l51.003906-68.003906c6.445313-8.59375 16.285156-13.957031 27-14.71875 7.867188-.5625 15.613282 1.410156 22.183594 5.5l-52.394531 73.351562 24.414062 17.433594 77.792969-108.914063v-107.226562c0-19.554688 12.539062-36.238281 30-42.429688zm0 0"/><path d="m182.996094 254.542969c-11.664063-15.554688-29.480469-25.265625-48.875-26.644531-14.871094-1.058594-29.527344 2.890624-41.757813 10.996093l-2.363281-3.308593v-97.617188c0-41.355469-33.644531-75-75-75h-15v229.15625l90 150v40.84375h150c0-5.867188 0-143.738281 0-152.421875zm27.003906 198.425781h-90v-19.15625l-90-150v-188.273438c17.460938 6.191407 30 22.871094 30 42.429688v107.230469l77.792969 108.910156 24.414062-17.4375-52.394531-73.347656c6.574219-4.089844 14.320312-6.0625 22.183594-5.5 10.714844.761719 20.554687 6.125 27 14.71875l51.003906 68.003906zm0 0"/></svg>